# xmcd
#
# Track frame offsets: 
#        150
#        17925
#        34085
#        55330
#        76225
#        98200
#        112275
#        121155
#        143120
#        161850
#        183690
#
# Disc length: 2821 seconds
#
# Revision: 0
# Processed by: cddbd v1.5.2PL0 Copyright (c) Steve Scherf et al.
# Submitted via: ExactAudioCopy v0.99pb4
#
DISCID=9a0b030b
DTITLE=Basix - Basix
DYEAR=1993
DGENRE=Christian Rock
TTITLE0=Let Everything That Has Breath
TTITLE1=I Can Be Glad
TTITLE2=Awesome In This Place
TTITLE3=I Love You Lord
TTITLE4=Revelation
TTITLE5=Amen
TTITLE6=I Need Thee Every Hour
TTITLE7=Peace Speaker
TTITLE8=Power Of Praise
TTITLE9=Spirit Of David
TTITLE10=Midnight Cry
EXTD=
EXTT0=
EXTT1=
EXTT2=
EXTT3=
EXTT4=
EXTT5=
EXTT6=
EXTT7=
EXTT8=
EXTT9=
EXTT10=
PLAYORDER=
